<svg width="2873" height="2873" viewBox="0 0 2873 2873" fill="none" xmlns="http://www.w3.org/2000/svg">
<rect width="2873" height="2873" rx="1436.5" fill="white"/>
<path fill-rule="evenodd" clip-rule="evenodd" d="M1867.47 1149.2C1867.47 1387.21 1674.52 1580.15 1436.52 1580.15C1198.51 1580.15 1005.57 1387.21 1005.57 1149.2C1005.57 911.193 1198.51 718.25 1436.52 718.25C1674.52 718.25 1867.47 911.193 1867.47 1149.2ZM1723.82 1149.2C1723.82 1307.87 1595.19 1436.5 1436.52 1436.5C1277.85 1436.5 1149.22 1307.87 1149.22 1149.2C1149.22 990.529 1277.85 861.9 1436.52 861.9C1595.19 861.9 1723.82 990.529 1723.82 1149.2Z" fill="#1E1E1E"/>
<path d="M1436.52 1795.62C971.495 1795.62 575.284 2070.6 424.357 2455.84C461.124 2492.35 499.855 2526.89 540.378 2559.27C652.765 2205.58 1005.33 1939.27 1436.52 1939.27C1867.7 1939.27 2220.27 2205.58 2332.66 2559.27C2373.18 2526.89 2411.91 2492.35 2448.68 2455.84C2297.75 2070.6 1901.54 1795.62 1436.52 1795.62Z" fill="#1E1E1E"/>
</svg>
